<svg width="121" height="52" viewBox="0 0 121 52" fill="none" xmlns="http://www.w3.org/2000/svg">
<rect y="8" width="44" height="44" rx="22" fill="url(#paint0_linear_73_886)"/>
<rect x="36.8652" width="20" height="20" rx="10" transform="rotate(57.4863 36.8652 0)" fill="url(#paint1_linear_73_886)"/>
<rect x="39.9355" y="15" width="10.5963" height="10.5963" rx="5.29816" transform="rotate(57.4863 39.9355 15)" fill="url(#paint2_linear_73_886)"/>
<path d="M56.7192 20.576V32H64.7992V29.888H59.2312V20.576H56.7192ZM67.9796 27.872C67.9796 26.544 68.4436 25.216 69.9796 25.216C71.5316 25.216 71.9956 26.544 71.9956 27.872C71.9956 29.2 71.5316 30.512 69.9796 30.512C68.4436 30.512 67.9796 29.2 67.9796 27.872ZM65.7076 27.872C65.7076 30.512 67.3876 32.208 69.9796 32.208C72.5876 32.208 74.2676 30.512 74.2676 27.872C74.2676 25.232 72.5876 23.504 69.9796 23.504C67.3876 23.504 65.7076 25.232 65.7076 27.872ZM79.6009 30.048C78.1929 30.048 77.7609 28.752 77.7609 27.568C77.7609 26.336 78.3209 25.216 79.6009 25.216C81.0729 25.216 81.5369 26.416 81.5369 27.76C81.5369 28.944 80.8969 30.048 79.6009 30.048ZM83.6969 31.472V23.728H81.5369V24.832H81.5049C80.9449 23.872 80.1289 23.504 79.0409 23.504C76.7369 23.504 75.4889 25.456 75.4889 27.6C75.4889 29.872 76.5289 31.76 79.0249 31.76C80.0329 31.76 81.0089 31.36 81.5049 30.48H81.5369V31.568C81.5529 32.736 80.9929 33.6 79.7129 33.6C78.8969 33.6 78.2249 33.312 78.0169 32.464H75.7609C75.8889 34.336 77.7769 35.12 79.4089 35.12C83.2009 35.12 83.6969 32.816 83.6969 31.472ZM87.5421 27.872C87.5421 26.544 88.0061 25.216 89.5421 25.216C91.0941 25.216 91.5581 26.544 91.5581 27.872C91.5581 29.2 91.0941 30.512 89.5421 30.512C88.0061 30.512 87.5421 29.2 87.5421 27.872ZM85.2701 27.872C85.2701 30.512 86.9501 32.208 89.5421 32.208C92.1501 32.208 93.8301 30.512 93.8301 27.872C93.8301 25.232 92.1501 23.504 89.5421 23.504C86.9501 23.504 85.2701 25.232 85.2701 27.872ZM100 20.576V32H102.352V24.352H102.384L107.136 32H109.648V20.576H107.296V28.24H107.264L102.496 20.576H100ZM112.516 20.432L114.98 22.704H116.564L115.028 20.432H112.516ZM117.188 26.976H113.492C113.54 26.336 113.908 25.216 115.38 25.216C116.484 25.216 116.98 25.824 117.188 26.976ZM113.492 28.416H119.46C119.636 25.872 118.26 23.504 115.444 23.504C112.932 23.504 111.22 25.392 111.22 27.872C111.22 30.448 112.836 32.208 115.444 32.208C117.316 32.208 118.676 31.424 119.316 29.44H117.316C117.172 29.952 116.436 30.512 115.524 30.512C114.244 30.512 113.556 29.888 113.492 28.416Z" fill="black"/>
<defs>
<linearGradient id="paint0_linear_73_886" x1="33.5" y1="12.5" x2="11.5" y2="48.5" gradientUnits="userSpaceOnUse">
<stop stop-color="#200053"/>
<stop offset="1" stop-color="#6E08FF"/>
</linearGradient>
<linearGradient id="paint1_linear_73_886" x1="52.0925" y1="2.04545" x2="42.0925" y2="18.4091" gradientUnits="userSpaceOnUse">
<stop stop-color="#200053"/>
<stop offset="1" stop-color="#6E08FF"/>
</linearGradient>
<linearGradient id="paint2_linear_73_886" x1="48.0032" y1="16.0837" x2="42.705" y2="24.7534" gradientUnits="userSpaceOnUse">
<stop stop-color="#200053"/>
<stop offset="1" stop-color="#6E08FF"/>
</linearGradient>
</defs>
</svg>
